<svg width="1000" height="520" xmlns="http://www.w3.org/2000/svg" role="img" aria-labelledby="chart-title chart-subtitle"><defs><style><![CDATA[
		.project-name { 
			font-family: -apple-system, BlinkMacSystemFont, system-ui, sans-serif; 
			font-size: 16.0px; 
			font-weight: 500; 
			fill: #4269d0; 
			letter-spacing: -0.005em;
			line-height: 1.2;
		}
		.chart-title { 
			font-family: -apple-system, BlinkMacSystemFont, system-ui, sans-serif; 
			font-size: 18.0px; 
			font-weight: 600; 
			fill: #111827; 
			letter-spacing: -0.02em;
			line-height: 1.1;
		}
		.chart-subtitle { 
			font-family: -apple-system, BlinkMacSystemFont, system-ui, sans-serif; 
			font-size: 14.0px; 
			font-weight: 400; 
			fill: #6b7280;
			letter-spacing: -0.005em;
			line-height: 1.3;
		}
		.axis-label { 
			font-family: -apple-system, BlinkMacSystemFont, system-ui, sans-serif; 
			font-size: 11.0px; 
			font-weight: 400; 
			fill: #9ca3af;
			letter-spacing: 0em;
		}
		.axis-title { 
			font-family: -apple-system, BlinkMacSystemFont, system-ui, sans-serif; 
			font-size: 12.0px; 
			font-weight: 500; 
			fill: #4b5563;
			letter-spacing: -0.005em;
		}
		.legend-title { 
			font-family: -apple-system, BlinkMacSystemFont, system-ui, sans-serif; 
			font-size: 12.0px; 
			font-weight: 600; 
			fill: #374151;
			letter-spacing: -0.01em;
		}
		.legend-text { 
			font-family: -apple-system, BlinkMacSystemFont, system-ui, sans-serif; 
			font-size: 11.0px; 
			font-weight: 400; 
			fill: #4b5563;
			letter-spacing: 0em;
		}
		.legend-count { 
			font-family: ui-monospace, 'SF Mono', 'Monaco', 'Cascadia Code', monospace; 
			font-size: 10.0px; 
			font-weight: 500; 
			fill: #6b7280;
			letter-spacing: 0.05em;
		}
		.meta-text { 
			font-family: -apple-system, BlinkMacSystemFont, system-ui, sans-serif; 
			font-size: 10.0px; 
			font-weight: 400;
			fill: #9ca3af;
			letter-spacing: 0em;
		}
		.grid-line { 
			stroke: #f1f5f9; 
			stroke-width: 0.5; 
			opacity: 1;
		}
		.grid-line-major { 
			stroke: #e2e8f0; 
			stroke-width: 0.75; 
			opacity: 1;
		}
		.chart-area { 
			fill: #ffffff;
		}
		.chart-border { 
			stroke: none;
			fill: none;
		}
		.trend-line { 
			fill: none; 
			stroke-width: 2; 
			stroke-linecap: round; 
			stroke-linejoin: round; 
			opacity: 0.9;
			transition: all 0.2s cubic-bezier(0.4, 0, 0.2, 1);
			cursor: pointer;
		}
		.trend-line:hover { 
			stroke-width: 3;
			opacity: 1;
			filter: drop-shadow(0 0 4px rgba(0,0,0,0.1));
		}
		.trend-line:focus { 
			outline: 2px solid #4269d0;
			outline-offset: 2px;
			stroke-width: 3;
		}
		.data-point { 
			fill: #ffffff;
			stroke-width: 2;
			transition: all 0.15s cubic-bezier(0.4, 0, 0.2, 1);
			cursor: pointer;
		}
		.data-point:hover { 
			r: 6;
			stroke: #ffffff;
			stroke-width: 3;
			filter: drop-shadow(0 2px 4px rgba(0,0,0,0.15));
		}
		.data-point:focus { 
			outline: 2px solid #4269d0;
			outline-offset: 2px;
			r: 6;
		}
		.data-point:active {
			transform: scale(0.95);
		}
		.legend-background { 
			fill: #fafafa; 
			stroke: #e4e4e7; 
			stroke-width: 0.5; 
			rx: 6;
			transition: all 0.2s cubic-bezier(0.4, 0, 0.2, 1);
		}
		.legend-background:hover {
			stroke: #d1d5db;
			fill: #ffffff;
		}
		.legend-item { 
			cursor: pointer;
			transition: all 0.15s cubic-bezier(0.4, 0, 0.2, 1);
		}
		.legend-item:hover {
			opacity: 1;
			transform: translateX(2px);
		}
		.legend-item:focus {
			outline: 2px solid #4269d0;
			outline-offset: 1px;
			border-radius: 4px;
		}
		.legend-color-indicator { 
			rx: 1;
			transition: all 0.15s cubic-bezier(0.4, 0, 0.2, 1);
		}
		.legend-item:hover .legend-color-indicator {
			rx: 2;
			transform: scale(1.1);
			filter: drop-shadow(0 1px 3px rgba(0,0,0,0.1));
		}
		.legend-text {
			transition: all 0.15s cubic-bezier(0.4, 0, 0.2, 1);
		}
		.legend-item:hover .legend-text {
			fill: #111827;
			font-weight: 500;
		}
		@media (prefers-reduced-motion: reduce) {
			* {
				transition: none !important;
				animation: none !important;
			}
		}
	]]></style></defs><rect width="1000" height="520" fill="#ffffff"/><text id="chart-title" x="500" y="28" class="project-name" text-anchor="middle">template-GoReleaser</text><text x="500" y="48" class="chart-title" text-anchor="middle">Language Trends</text><text id="chart-subtitle" x="500" y="65" class="chart-subtitle" text-anchor="middle">Lines of code over time</text><rect x="80" y="90" width="680" height="330" class="chart-area"/><line x1="80" y1="90" x2="760" y2="90" class="grid-line-major"/><line x1="80" y1="156" x2="760" y2="156" class="grid-line"/><line x1="80" y1="222" x2="760" y2="222" class="grid-line"/><line x1="80" y1="288" x2="760" y2="288" class="grid-line"/><line x1="80" y1="354" x2="760" y2="354" class="grid-line"/><line x1="80" y1="420" x2="760" y2="420" class="grid-line-major"/><circle cx="80.0" cy="420.0" r="3" fill="#4269d0" class="data-point" tabindex="0" role="img" aria-label="Go: 46 lines (Aug 9, 2025)"><title>Go: 46 lines (Aug 9, 2025)</title></circle><circle cx="254.0" cy="379.0" r="3" fill="#4269d0" class="data-point" tabindex="0" role="img" aria-label="Go: 2.1K lines (Aug 10, 2025)"><title>Go: 2.1K lines (Aug 10, 2025)</title></circle><circle cx="271.0" cy="379.0" r="3" fill="#4269d0" class="data-point" tabindex="0" role="img" aria-label="Go: 2.1K lines (Aug 10, 2025)"><title>Go: 2.1K lines (Aug 10, 2025)</title></circle><circle cx="289.0" cy="379.0" r="3" fill="#4269d0" class="data-point" tabindex="0" role="img" aria-label="Go: 2.1K lines (Aug 10, 2025)"><title>Go: 2.1K lines (Aug 10, 2025)</title></circle><circle cx="306.0" cy="379.0" r="3" fill="#4269d0" class="data-point" tabindex="0" role="img" aria-label="Go: 2.1K lines (Aug 10, 2025)"><title>Go: 2.1K lines (Aug 10, 2025)</title></circle><circle cx="324.0" cy="379.0" r="3" fill="#4269d0" class="data-point" tabindex="0" role="img" aria-label="Go: 2.1K lines (Aug 10, 2025)"><title>Go: 2.1K lines (Aug 10, 2025)</title></circle><circle cx="341.0" cy="379.0" r="3" fill="#4269d0" class="data-point" tabindex="0" role="img" aria-label="Go: 2.1K lines (Aug 10, 2025)"><title>Go: 2.1K lines (Aug 10, 2025)</title></circle><circle cx="358.0" cy="361.0" r="3" fill="#4269d0" class="data-point" tabindex="0" role="img" aria-label="Go: 3.0K lines (Aug 10, 2025)"><title>Go: 3.0K lines (Aug 10, 2025)</title></circle><circle cx="376.0" cy="361.0" r="3" fill="#4269d0" class="data-point" tabindex="0" role="img" aria-label="Go: 3.0K lines (Aug 10, 2025)"><title>Go: 3.0K lines (Aug 10, 2025)</title></circle><circle cx="393.0" cy="357.0" r="3" fill="#4269d0" class="data-point" tabindex="0" role="img" aria-label="Go: 3.2K lines (Aug 10, 2025)"><title>Go: 3.2K lines (Aug 10, 2025)</title></circle><circle cx="411.0" cy="331.0" r="3" fill="#4269d0" class="data-point" tabindex="0" role="img" aria-label="Go: 4.5K lines (Aug 11, 2025)"><title>Go: 4.5K lines (Aug 11, 2025)</title></circle><circle cx="428.0" cy="331.0" r="3" fill="#4269d0" class="data-point" tabindex="0" role="img" aria-label="Go: 4.5K lines (Aug 11, 2025)"><title>Go: 4.5K lines (Aug 11, 2025)</title></circle><circle cx="446.0" cy="281.0" r="3" fill="#4269d0" class="data-point" tabindex="0" role="img" aria-label="Go: 7.0K lines (Aug 11, 2025)"><title>Go: 7.0K lines (Aug 11, 2025)</title></circle><circle cx="463.0" cy="281.0" r="3" fill="#4269d0" class="data-point" tabindex="0" role="img" aria-label="Go: 7.0K lines (Aug 11, 2025)"><title>Go: 7.0K lines (Aug 11, 2025)</title></circle><circle cx="481.0" cy="282.0" r="3" fill="#4269d0" class="data-point" tabindex="0" role="img" aria-label="Go: 6.9K lines (Aug 11, 2025)"><title>Go: 6.9K lines (Aug 11, 2025)</title></circle><circle cx="498.0" cy="277.0" r="3" fill="#4269d0" class="data-point" tabindex="0" role="img" aria-label="Go: 7.2K lines (Aug 11, 2025)"><title>Go: 7.2K lines (Aug 11, 2025)</title></circle><circle cx="515.0" cy="279.0" r="3" fill="#4269d0" class="data-point" tabindex="0" role="img" aria-label="Go: 7.1K lines (Aug 11, 2025)"><title>Go: 7.1K lines (Aug 11, 2025)</title></circle><circle cx="533.0" cy="278.0" r="3" fill="#4269d0" class="data-point" tabindex="0" role="img" aria-label="Go: 7.1K lines (Aug 11, 2025)"><title>Go: 7.1K lines (Aug 11, 2025)</title></circle><circle cx="550.0" cy="278.0" r="3" fill="#4269d0" class="data-point" tabindex="0" role="img" aria-label="Go: 7.1K lines (Aug 11, 2025)"><title>Go: 7.1K lines (Aug 11, 2025)</title></circle><circle cx="568.0" cy="308.0" r="3" fill="#4269d0" class="data-point" tabindex="0" role="img" aria-label="Go: 5.6K lines (Aug 11, 2025)"><title>Go: 5.6K lines (Aug 11, 2025)</title></circle><circle cx="585.0" cy="303.0" r="3" fill="#4269d0" class="data-point" tabindex="0" role="img" aria-label="Go: 5.9K lines (Aug 12, 2025)"><title>Go: 5.9K lines (Aug 12, 2025)</title></circle><circle cx="603.0" cy="303.0" r="3" fill="#4269d0" class="data-point" tabindex="0" role="img" aria-label="Go: 5.9K lines (Aug 12, 2025)"><title>Go: 5.9K lines (Aug 12, 2025)</title></circle><circle cx="620.0" cy="303.0" r="3" fill="#4269d0" class="data-point" tabindex="0" role="img" aria-label="Go: 5.9K lines (Aug 12, 2025)"><title>Go: 5.9K lines (Aug 12, 2025)</title></circle><circle cx="637.0" cy="337.0" r="3" fill="#4269d0" class="data-point" tabindex="0" role="img" aria-label="Go: 4.2K lines (Aug 12, 2025)"><title>Go: 4.2K lines (Aug 12, 2025)</title></circle><circle cx="742.0" cy="385.0" r="3" fill="#4269d0" class="data-point" tabindex="0" role="img" aria-label="Go: 1.8K lines (Aug 13, 2025)"><title>Go: 1.8K lines (Aug 13, 2025)</title></circle><circle cx="760.0" cy="385.0" r="3" fill="#4269d0" class="data-point" tabindex="0" role="img" aria-label="Go: 1.8K lines (Aug 14, 2025)"><title>Go: 1.8K lines (Aug 14, 2025)</title></circle><path d="M 80.00 420.00 L 97.00 420.00 L 114.00 420.00 L 132.00 420.00 L 149.00 420.00 L 167.00 420.00 L 184.00 420.00 L 202.00 420.00 L 219.00 420.00 L 236.00 420.00 L 254.00 379.00 L 271.00 379.00 L 289.00 379.00 L 306.00 379.00 L 324.00 379.00 L 341.00 379.00 L 358.00 361.00 L 376.00 361.00 L 393.00 357.00 L 411.00 331.00 L 428.00 331.00 L 446.00 281.00 L 463.00 281.00 L 481.00 282.00 L 498.00 277.00 L 515.00 279.00 L 533.00 278.00 L 550.00 278.00 L 568.00 308.00 L 585.00 303.00 L 603.00 303.00 L 620.00 303.00 L 637.00 337.00 L 655.00 420.00 L 672.00 420.00 L 690.00 420.00 L 707.00 401.00 L 725.00 394.00 L 742.00 385.00 L 760.00 385.00" stroke="#4269d0" class="trend-line" tabindex="0" role="img" aria-label="Go trend line"><title>Go: 113.7K lines (optimized from 40 to 40 points)</title></path><circle cx="80.0" cy="420.0" r="3" fill="#3ca951" class="data-point" tabindex="0" role="img" aria-label="Markdown: 0 lines (Aug 9, 2025)"><title>Markdown: 0 lines (Aug 9, 2025)</title></circle><circle cx="254.0" cy="384.0" r="3" fill="#3ca951" class="data-point" tabindex="0" role="img" aria-label="Markdown: 1.8K lines (Aug 10, 2025)"><title>Markdown: 1.8K lines (Aug 10, 2025)</title></circle><circle cx="271.0" cy="380.0" r="3" fill="#3ca951" class="data-point" tabindex="0" role="img" aria-label="Markdown: 2.0K lines (Aug 10, 2025)"><title>Markdown: 2.0K lines (Aug 10, 2025)</title></circle><circle cx="289.0" cy="380.0" r="3" fill="#3ca951" class="data-point" tabindex="0" role="img" aria-label="Markdown: 2.0K lines (Aug 10, 2025)"><title>Markdown: 2.0K lines (Aug 10, 2025)</title></circle><circle cx="306.0" cy="374.0" r="3" fill="#3ca951" class="data-point" tabindex="0" role="img" aria-label="Markdown: 2.3K lines (Aug 10, 2025)"><title>Markdown: 2.3K lines (Aug 10, 2025)</title></circle><circle cx="324.0" cy="374.0" r="3" fill="#3ca951" class="data-point" tabindex="0" role="img" aria-label="Markdown: 2.3K lines (Aug 10, 2025)"><title>Markdown: 2.3K lines (Aug 10, 2025)</title></circle><circle cx="341.0" cy="374.0" r="3" fill="#3ca951" class="data-point" tabindex="0" role="img" aria-label="Markdown: 2.3K lines (Aug 10, 2025)"><title>Markdown: 2.3K lines (Aug 10, 2025)</title></circle><circle cx="358.0" cy="374.0" r="3" fill="#3ca951" class="data-point" tabindex="0" role="img" aria-label="Markdown: 2.3K lines (Aug 10, 2025)"><title>Markdown: 2.3K lines (Aug 10, 2025)</title></circle><circle cx="376.0" cy="374.0" r="3" fill="#3ca951" class="data-point" tabindex="0" role="img" aria-label="Markdown: 2.3K lines (Aug 10, 2025)"><title>Markdown: 2.3K lines (Aug 10, 2025)</title></circle><circle cx="393.0" cy="374.0" r="3" fill="#3ca951" class="data-point" tabindex="0" role="img" aria-label="Markdown: 2.3K lines (Aug 10, 2025)"><title>Markdown: 2.3K lines (Aug 10, 2025)</title></circle><circle cx="411.0" cy="374.0" r="3" fill="#3ca951" class="data-point" tabindex="0" role="img" aria-label="Markdown: 2.3K lines (Aug 11, 2025)"><title>Markdown: 2.3K lines (Aug 11, 2025)</title></circle><circle cx="428.0" cy="374.0" r="3" fill="#3ca951" class="data-point" tabindex="0" role="img" aria-label="Markdown: 2.3K lines (Aug 11, 2025)"><title>Markdown: 2.3K lines (Aug 11, 2025)</title></circle><circle cx="446.0" cy="374.0" r="3" fill="#3ca951" class="data-point" tabindex="0" role="img" aria-label="Markdown: 2.3K lines (Aug 11, 2025)"><title>Markdown: 2.3K lines (Aug 11, 2025)</title></circle><circle cx="463.0" cy="368.0" r="3" fill="#3ca951" class="data-point" tabindex="0" role="img" aria-label="Markdown: 2.6K lines (Aug 11, 2025)"><title>Markdown: 2.6K lines (Aug 11, 2025)</title></circle><circle cx="481.0" cy="365.0" r="3" fill="#3ca951" class="data-point" tabindex="0" role="img" aria-label="Markdown: 2.8K lines (Aug 11, 2025)"><title>Markdown: 2.8K lines (Aug 11, 2025)</title></circle><circle cx="498.0" cy="365.0" r="3" fill="#3ca951" class="data-point" tabindex="0" role="img" aria-label="Markdown: 2.8K lines (Aug 11, 2025)"><title>Markdown: 2.8K lines (Aug 11, 2025)</title></circle><circle cx="515.0" cy="365.0" r="3" fill="#3ca951" class="data-point" tabindex="0" role="img" aria-label="Markdown: 2.8K lines (Aug 11, 2025)"><title>Markdown: 2.8K lines (Aug 11, 2025)</title></circle><circle cx="533.0" cy="365.0" r="3" fill="#3ca951" class="data-point" tabindex="0" role="img" aria-label="Markdown: 2.8K lines (Aug 11, 2025)"><title>Markdown: 2.8K lines (Aug 11, 2025)</title></circle><circle cx="550.0" cy="365.0" r="3" fill="#3ca951" class="data-point" tabindex="0" role="img" aria-label="Markdown: 2.8K lines (Aug 11, 2025)"><title>Markdown: 2.8K lines (Aug 11, 2025)</title></circle><circle cx="568.0" cy="365.0" r="3" fill="#3ca951" class="data-point" tabindex="0" role="img" aria-label="Markdown: 2.8K lines (Aug 11, 2025)"><title>Markdown: 2.8K lines (Aug 11, 2025)</title></circle><circle cx="585.0" cy="322.0" r="3" fill="#3ca951" class="data-point" tabindex="0" role="img" aria-label="Markdown: 4.9K lines (Aug 12, 2025)"><title>Markdown: 4.9K lines (Aug 12, 2025)</title></circle><circle cx="603.0" cy="322.0" r="3" fill="#3ca951" class="data-point" tabindex="0" role="img" aria-label="Markdown: 4.9K lines (Aug 12, 2025)"><title>Markdown: 4.9K lines (Aug 12, 2025)</title></circle><circle cx="620.0" cy="322.0" r="3" fill="#3ca951" class="data-point" tabindex="0" role="img" aria-label="Markdown: 4.9K lines (Aug 12, 2025)"><title>Markdown: 4.9K lines (Aug 12, 2025)</title></circle><circle cx="637.0" cy="318.0" r="3" fill="#3ca951" class="data-point" tabindex="0" role="img" aria-label="Markdown: 5.1K lines (Aug 12, 2025)"><title>Markdown: 5.1K lines (Aug 12, 2025)</title></circle><circle cx="760.0" cy="399.0" r="3" fill="#3ca951" class="data-point" tabindex="0" role="img" aria-label="Markdown: 1.1K lines (Aug 14, 2025)"><title>Markdown: 1.1K lines (Aug 14, 2025)</title></circle><path d="M 80.00 420.00 L 97.00 414.00 L 114.00 414.00 L 132.00 414.00 L 149.00 401.00 L 167.00 401.00 L 184.00 401.00 L 202.00 401.00 L 219.00 401.00 L 236.00 401.00 L 254.00 384.00 L 271.00 380.00 L 289.00 380.00 L 306.00 374.00 L 324.00 374.00 L 341.00 374.00 L 358.00 374.00 L 376.00 374.00 L 393.00 374.00 L 411.00 374.00 L 428.00 374.00 L 446.00 374.00 L 463.00 368.00 L 481.00 365.00 L 498.00 365.00 L 515.00 365.00 L 533.00 365.00 L 550.00 365.00 L 568.00 365.00 L 585.00 322.00 L 603.00 322.00 L 620.00 322.00 L 637.00 318.00 L 655.00 389.00 L 672.00 389.00 L 690.00 402.00 L 707.00 405.00 L 725.00 399.00 L 742.00 399.00 L 760.00 399.00" stroke="#3ca951" class="trend-line" tabindex="0" role="img" aria-label="Markdown trend line"><title>Markdown: 81.1K lines (optimized from 40 to 40 points)</title></path><circle cx="80.0" cy="407.0" r="3" fill="#97bbf5" class="data-point" tabindex="0" role="img" aria-label="Shell: 658 lines (Aug 9, 2025)"><title>Shell: 658 lines (Aug 9, 2025)</title></circle><circle cx="271.0" cy="387.0" r="3" fill="#97bbf5" class="data-point" tabindex="0" role="img" aria-label="Shell: 1.7K lines (Aug 10, 2025)"><title>Shell: 1.7K lines (Aug 10, 2025)</title></circle><circle cx="289.0" cy="387.0" r="3" fill="#97bbf5" class="data-point" tabindex="0" role="img" aria-label="Shell: 1.7K lines (Aug 10, 2025)"><title>Shell: 1.7K lines (Aug 10, 2025)</title></circle><circle cx="306.0" cy="387.0" r="3" fill="#97bbf5" class="data-point" tabindex="0" role="img" aria-label="Shell: 1.7K lines (Aug 10, 2025)"><title>Shell: 1.7K lines (Aug 10, 2025)</title></circle><circle cx="324.0" cy="387.0" r="3" fill="#97bbf5" class="data-point" tabindex="0" role="img" aria-label="Shell: 1.7K lines (Aug 10, 2025)"><title>Shell: 1.7K lines (Aug 10, 2025)</title></circle><circle cx="341.0" cy="387.0" r="3" fill="#97bbf5" class="data-point" tabindex="0" role="img" aria-label="Shell: 1.7K lines (Aug 10, 2025)"><title>Shell: 1.7K lines (Aug 10, 2025)</title></circle><circle cx="358.0" cy="385.0" r="3" fill="#97bbf5" class="data-point" tabindex="0" role="img" aria-label="Shell: 1.8K lines (Aug 10, 2025)"><title>Shell: 1.8K lines (Aug 10, 2025)</title></circle><circle cx="376.0" cy="385.0" r="3" fill="#97bbf5" class="data-point" tabindex="0" role="img" aria-label="Shell: 1.8K lines (Aug 10, 2025)"><title>Shell: 1.8K lines (Aug 10, 2025)</title></circle><circle cx="393.0" cy="385.0" r="3" fill="#97bbf5" class="data-point" tabindex="0" role="img" aria-label="Shell: 1.8K lines (Aug 10, 2025)"><title>Shell: 1.8K lines (Aug 10, 2025)</title></circle><circle cx="411.0" cy="385.0" r="3" fill="#97bbf5" class="data-point" tabindex="0" role="img" aria-label="Shell: 1.8K lines (Aug 11, 2025)"><title>Shell: 1.8K lines (Aug 11, 2025)</title></circle><circle cx="428.0" cy="385.0" r="3" fill="#97bbf5" class="data-point" tabindex="0" role="img" aria-label="Shell: 1.8K lines (Aug 11, 2025)"><title>Shell: 1.8K lines (Aug 11, 2025)</title></circle><circle cx="446.0" cy="385.0" r="3" fill="#97bbf5" class="data-point" tabindex="0" role="img" aria-label="Shell: 1.8K lines (Aug 11, 2025)"><title>Shell: 1.8K lines (Aug 11, 2025)</title></circle><circle cx="463.0" cy="385.0" r="3" fill="#97bbf5" class="data-point" tabindex="0" role="img" aria-label="Shell: 1.8K lines (Aug 11, 2025)"><title>Shell: 1.8K lines (Aug 11, 2025)</title></circle><circle cx="481.0" cy="385.0" r="3" fill="#97bbf5" class="data-point" tabindex="0" role="img" aria-label="Shell: 1.8K lines (Aug 11, 2025)"><title>Shell: 1.8K lines (Aug 11, 2025)</title></circle><circle cx="498.0" cy="385.0" r="3" fill="#97bbf5" class="data-point" tabindex="0" role="img" aria-label="Shell: 1.8K lines (Aug 11, 2025)"><title>Shell: 1.8K lines (Aug 11, 2025)</title></circle><circle cx="515.0" cy="385.0" r="3" fill="#97bbf5" class="data-point" tabindex="0" role="img" aria-label="Shell: 1.8K lines (Aug 11, 2025)"><title>Shell: 1.8K lines (Aug 11, 2025)</title></circle><circle cx="533.0" cy="385.0" r="3" fill="#97bbf5" class="data-point" tabindex="0" role="img" aria-label="Shell: 1.8K lines (Aug 11, 2025)"><title>Shell: 1.8K lines (Aug 11, 2025)</title></circle><circle cx="550.0" cy="385.0" r="3" fill="#97bbf5" class="data-point" tabindex="0" role="img" aria-label="Shell: 1.8K lines (Aug 11, 2025)"><title>Shell: 1.8K lines (Aug 11, 2025)</title></circle><circle cx="568.0" cy="385.0" r="3" fill="#97bbf5" class="data-point" tabindex="0" role="img" aria-label="Shell: 1.8K lines (Aug 11, 2025)"><title>Shell: 1.8K lines (Aug 11, 2025)</title></circle><circle cx="585.0" cy="385.0" r="3" fill="#97bbf5" class="data-point" tabindex="0" role="img" aria-label="Shell: 1.8K lines (Aug 12, 2025)"><title>Shell: 1.8K lines (Aug 12, 2025)</title></circle><circle cx="603.0" cy="385.0" r="3" fill="#97bbf5" class="data-point" tabindex="0" role="img" aria-label="Shell: 1.8K lines (Aug 12, 2025)"><title>Shell: 1.8K lines (Aug 12, 2025)</title></circle><circle cx="620.0" cy="385.0" r="3" fill="#97bbf5" class="data-point" tabindex="0" role="img" aria-label="Shell: 1.8K lines (Aug 12, 2025)"><title>Shell: 1.8K lines (Aug 12, 2025)</title></circle><circle cx="637.0" cy="385.0" r="3" fill="#97bbf5" class="data-point" tabindex="0" role="img" aria-label="Shell: 1.8K lines (Aug 12, 2025)"><title>Shell: 1.8K lines (Aug 12, 2025)</title></circle><circle cx="760.0" cy="415.0" r="3" fill="#97bbf5" class="data-point" tabindex="0" role="img" aria-label="Shell: 258 lines (Aug 14, 2025)"><title>Shell: 258 lines (Aug 14, 2025)</title></circle><path d="M 80.00 407.00 L 97.00 407.00 L 114.00 404.00 L 132.00 404.00 L 149.00 404.00 L 167.00 402.00 L 184.00 402.00 L 202.00 402.00 L 219.00 400.00 L 236.00 400.00 L 254.00 388.00 L 271.00 387.00 L 289.00 387.00 L 306.00 387.00 L 324.00 387.00 L 341.00 387.00 L 358.00 385.00 L 376.00 385.00 L 393.00 385.00 L 411.00 385.00 L 428.00 385.00 L 446.00 385.00 L 463.00 385.00 L 481.00 385.00 L 498.00 385.00 L 515.00 385.00 L 533.00 385.00 L 550.00 385.00 L 568.00 385.00 L 585.00 385.00 L 603.00 385.00 L 620.00 385.00 L 637.00 385.00 L 655.00 415.00 L 672.00 415.00 L 690.00 415.00 L 707.00 415.00 L 725.00 415.00 L 742.00 415.00 L 760.00 415.00" stroke="#97bbf5" class="trend-line" tabindex="0" role="img" aria-label="Shell trend line"><title>Shell: 50.9K lines (optimized from 40 to 40 points)</title></path><circle cx="80.0" cy="398.0" r="3" fill="#97bbf5" class="data-point" tabindex="0" role="img" aria-label="YAML: 1.1K lines (Aug 9, 2025)"><title>YAML: 1.1K lines (Aug 9, 2025)</title></circle><circle cx="760.0" cy="402.0" r="3" fill="#97bbf5" class="data-point" tabindex="0" role="img" aria-label="YAML: 904 lines (Aug 14, 2025)"><title>YAML: 904 lines (Aug 14, 2025)</title></circle><path d="M 80.00 398.00 L 97.00 398.00 L 114.00 398.00 L 132.00 398.00 L 149.00 409.00 L 167.00 409.00 L 184.00 409.00 L 202.00 409.00 L 219.00 409.00 L 236.00 409.00 L 254.00 405.00 L 271.00 405.00 L 289.00 405.00 L 306.00 405.00 L 324.00 405.00 L 341.00 405.00 L 358.00 405.00 L 376.00 405.00 L 393.00 405.00 L 411.00 405.00 L 428.00 405.00 L 446.00 405.00 L 463.00 405.00 L 481.00 405.00 L 498.00 405.00 L 515.00 405.00 L 533.00 405.00 L 550.00 405.00 L 568.00 405.00 L 585.00 390.00 L 603.00 390.00 L 620.00 390.00 L 637.00 394.00 L 655.00 397.00 L 672.00 397.00 L 690.00 400.00 L 707.00 400.00 L 725.00 400.00 L 742.00 402.00 L 760.00 402.00" stroke="#97bbf5" class="trend-line" tabindex="0" role="img" aria-label="YAML trend line"><title>YAML: 36.2K lines (optimized from 40 to 40 points)</title></path><circle cx="80.0" cy="420.0" r="3" fill="#9498a0" class="data-point" tabindex="0" role="img" aria-label="License: 17 lines (Aug 9, 2025)"><title>License: 17 lines (Aug 9, 2025)</title></circle><circle cx="760.0" cy="420.0" r="3" fill="#9498a0" class="data-point" tabindex="0" role="img" aria-label="License: 17 lines (Aug 14, 2025)"><title>License: 17 lines (Aug 14, 2025)</title></circle><path d="M 80.00 420.00 L 97.00 420.00 L 114.00 420.00 L 132.00 416.00 L 149.00 416.00 L 167.00 416.00 L 184.00 416.00 L 202.00 416.00 L 219.00 416.00 L 236.00 416.00 L 254.00 416.00 L 271.00 416.00 L 289.00 416.00 L 306.00 416.00 L 324.00 416.00 L 341.00 416.00 L 358.00 416.00 L 376.00 416.00 L 393.00 416.00 L 411.00 416.00 L 428.00 416.00 L 446.00 416.00 L 463.00 416.00 L 481.00 416.00 L 498.00 416.00 L 515.00 416.00 L 533.00 416.00 L 550.00 416.00 L 568.00 416.00 L 585.00 420.00 L 603.00 420.00 L 620.00 420.00 L 637.00 420.00 L 655.00 420.00 L 672.00 420.00 L 690.00 420.00 L 707.00 420.00 L 725.00 420.00 L 742.00 420.00 L 760.00 420.00" stroke="#9498a0" class="trend-line" tabindex="0" role="img" aria-label="License trend line"><title>License: 5.9K lines (optimized from 40 to 40 points)</title></path><circle cx="80.0" cy="420.0" r="3" fill="#efb118" class="data-point" tabindex="0" role="img" aria-label="JavaScript: 0 lines (Aug 9, 2025)"><title>JavaScript: 0 lines (Aug 9, 2025)</title></circle><circle cx="760.0" cy="420.0" r="3" fill="#efb118" class="data-point" tabindex="0" role="img" aria-label="JavaScript: 0 lines (Aug 14, 2025)"><title>JavaScript: 0 lines (Aug 14, 2025)</title></circle><path d="M 80.00 420.00 L 97.00 420.00 L 114.00 420.00 L 132.00 420.00 L 149.00 420.00 L 167.00 420.00 L 184.00 420.00 L 202.00 420.00 L 219.00 420.00 L 236.00 420.00 L 254.00 420.00 L 271.00 420.00 L 289.00 420.00 L 306.00 420.00 L 324.00 420.00 L 341.00 420.00 L 358.00 420.00 L 376.00 420.00 L 393.00 420.00 L 411.00 415.00 L 428.00 415.00 L 446.00 415.00 L 463.00 415.00 L 481.00 415.00 L 498.00 415.00 L 515.00 415.00 L 533.00 415.00 L 550.00 415.00 L 568.00 415.00 L 585.00 411.00 L 603.00 411.00 L 620.00 411.00 L 637.00 411.00 L 655.00 420.00 L 672.00 420.00 L 690.00 420.00 L 707.00 420.00 L 725.00 420.00 L 742.00 420.00 L 760.00 420.00" stroke="#efb118" class="trend-line" tabindex="0" role="img" aria-label="JavaScript trend line"><title>JavaScript: 4.6K lines (optimized from 40 to 40 points)</title></path><circle cx="80.0" cy="420.0" r="3" fill="#9498a0" class="data-point" tabindex="0" role="img" aria-label="Templ: 0 lines (Aug 9, 2025)"><title>Templ: 0 lines (Aug 9, 2025)</title></circle><circle cx="760.0" cy="420.0" r="3" fill="#9498a0" class="data-point" tabindex="0" role="img" aria-label="Templ: 0 lines (Aug 14, 2025)"><title>Templ: 0 lines (Aug 14, 2025)</title></circle><path d="M 80.00 420.00 L 97.00 420.00 L 114.00 420.00 L 132.00 420.00 L 149.00 420.00 L 167.00 420.00 L 184.00 420.00 L 202.00 420.00 L 219.00 420.00 L 236.00 420.00 L 254.00 420.00 L 271.00 420.00 L 289.00 420.00 L 306.00 420.00 L 324.00 420.00 L 341.00 420.00 L 358.00 420.00 L 376.00 420.00 L 393.00 420.00 L 411.00 415.00 L 428.00 415.00 L 446.00 415.00 L 463.00 415.00 L 481.00 415.00 L 498.00 415.00 L 515.00 415.00 L 533.00 415.00 L 550.00 415.00 L 568.00 415.00 L 585.00 415.00 L 603.00 415.00 L 620.00 415.00 L 637.00 415.00 L 655.00 420.00 L 672.00 420.00 L 690.00 420.00 L 707.00 420.00 L 725.00 420.00 L 742.00 420.00 L 760.00 420.00" stroke="#9498a0" class="trend-line" tabindex="0" role="img" aria-label="Templ trend line"><title>Templ: 3.5K lines (optimized from 40 to 40 points)</title></path><text x="65" y="420" class="axis-label" text-anchor="end" dominant-baseline="middle">0</text><text x="65" y="338" class="axis-label" text-anchor="end" dominant-baseline="middle">4.1K</text><text x="65" y="255" class="axis-label" text-anchor="end" dominant-baseline="middle">8.2K</text><text x="65" y="173" class="axis-label" text-anchor="end" dominant-baseline="middle">12.4K</text><text x="65" y="90" class="axis-label" text-anchor="end" dominant-baseline="middle">16.5K</text><text x="80" y="440" class="axis-label" text-anchor="middle">Aug 25</text><text x="236" y="440" class="axis-label" text-anchor="middle">Aug 10</text><text x="411" y="440" class="axis-label" text-anchor="middle">Aug 11</text><text x="585" y="440" class="axis-label" text-anchor="middle">Aug 12</text><text x="760" y="440" class="axis-label" text-anchor="middle">Aug 25</text><text x="20" y="255" class="axis-title" text-anchor="middle" transform="rotate(-90 20 255)">Lines</text><rect x="758" y="88" width="180" height="166" class="legend-background"/><text x="770" y="116" class="legend-title">Languages</text><g class="legend-item" tabindex="0" role="button" aria-label="Go: 113.7K lines"><circle cx="775" cy="132" r="5" fill="#ff725c" class="legend-color-indicator"/><text x="788" y="132" class="legend-text" dominant-baseline="middle">Go</text><text x="940" y="132" class="legend-count" dominant-baseline="middle" text-anchor="end">113.7K</text><title>Go: 113.7K lines</title></g><g class="legend-item" tabindex="0" role="button" aria-label="Markdown: 81.1K lines"><circle cx="775" cy="150" r="5" fill="#9498a0" class="legend-color-indicator"/><text x="788" y="150" class="legend-text" dominant-baseline="middle">Markdown</text><text x="940" y="150" class="legend-count" dominant-baseline="middle" text-anchor="end">81.1K</text><title>Markdown: 81.1K lines</title></g><g class="legend-item" tabindex="0" role="button" aria-label="Shell: 50.9K lines"><circle cx="775" cy="168" r="5" fill="#9c6b4e" class="legend-color-indicator"/><text x="788" y="168" class="legend-text" dominant-baseline="middle">Shell</text><text x="940" y="168" class="legend-count" dominant-baseline="middle" text-anchor="end">50.9K</text><title>Shell: 50.9K lines</title></g><g class="legend-item" tabindex="0" role="button" aria-label="YAML: 36.2K lines"><circle cx="775" cy="186" r="5" fill="#9c6b4e" class="legend-color-indicator"/><text x="788" y="186" class="legend-text" dominant-baseline="middle">YAML</text><text x="940" y="186" class="legend-count" dominant-baseline="middle" text-anchor="end">36.2K</text><title>YAML: 36.2K lines</title></g><g class="legend-item" tabindex="0" role="button" aria-label="License: 5.9K lines"><circle cx="775" cy="204" r="5" fill="#9498a0" class="legend-color-indicator"/><text x="788" y="204" class="legend-text" dominant-baseline="middle">License</text><text x="940" y="204" class="legend-count" dominant-baseline="middle" text-anchor="end">5.9K</text><title>License: 5.9K lines</title></g><g class="legend-item" tabindex="0" role="button" aria-label="JavaScript: 4.6K lines"><circle cx="775" cy="222" r="5" fill="#efb118" class="legend-color-indicator"/><text x="788" y="222" class="legend-text" dominant-baseline="middle">JavaScript</text><text x="940" y="222" class="legend-count" dominant-baseline="middle" text-anchor="end">4.6K</text><title>JavaScript: 4.6K lines</title></g><g class="legend-item" tabindex="0" role="button" aria-label="Templ: 3.5K lines"><circle cx="775" cy="240" r="5" fill="#9498a0" class="legend-color-indicator"/><text x="788" y="240" class="legend-text" dominant-baseline="middle">Templ</text><text x="940" y="240" class="legend-count" dominant-baseline="middle" text-anchor="end">3.5K</text><title>Templ: 3.5K lines</title></g>
		<style>
		.insight-annotation {
			font-family: -apple-system, BlinkMacSystemFont, system-ui, sans-serif;
			font-size: 11px;
			font-weight: 600;
			pointer-events: none;
		}
		.insight-callout {
			fill: #ffffff;
			stroke-width: 1;
			rx: 4;
			filter: drop-shadow(0 2px 4px rgba(0,0,0,0.1));
		}
		.insight-leader-line {
			stroke: #9ca3af;
			stroke-width: 1;
			stroke-dasharray: 2,2;
			opacity: 0.7;
		}
		</style>
	<rect x="635.0" y="95.0" width="150" height="20" class="insight-callout" stroke="#4269d0"/><text x="640.0" y="110.0" class="insight-annotation" fill="#4269d0">👑 Go dominates (37.7%)</text><rect x="605.0" y="145.0" width="108" height="20" class="insight-callout" stroke="#3ca951"/><text x="610.0" y="160.0" class="insight-annotation" fill="#3ca951">📈 +3715% growth</text><rect x="95.0" y="195.0" width="102" height="20" class="insight-callout" stroke="#97bbf5"/><text x="100.0" y="210.0" class="insight-annotation" fill="#97bbf5">📉 -61% decline</text><text x="60" y="505" class="meta-text">Aug 25 to Aug 25 • 40 commits • 4.1K total lines • 118.6% growth 📈</text></svg>